# xmcd
#
# Track frame offsets:
#	150
#	18823
#	33809
#	50093
#	68821
#	86058
#	108080
#	121419
#	137227
#	154160
#	165204
#	177103
#	191589
#	213327
#	226077
#	243144
#	254909
#	272723
#	291383
#	310274
#
# Disc length: 4365 seconds
#
# Revision: 1
# Processed by: cddbd v1.5.2PL0 Copyright (c) Steve Scherf et al.
# Submitted via: audiograbber 1.83.01
#
DISCID=13110b14
DTITLE=Various Artist - Complete 70's Vol 1 H-R
DYEAR=1900
DGENRE=
TTITLE0=Kinks - Lola
TTITLE1=M - Pop Muzik
TTITLE2=McFadden and Whitehead - Ain't No Stoppin' Us Now
TTITLE3=Don McLean - American Pie
TTITLE4=Bob Marley and The Wailers - Jamming
TTITLE5=Meatloaf - Bat Out Of Hell
TTITLE6=Mud - Dynamite
TTITLE7=Mungo Jerry - In The Summertime
TTITLE8=Gary Numan - Cars
TTITLE9=Osmonds - Crazy Horses
TTITLE10=Gilbert O' Sullivan - Get Down
TTITLE11=Robert Palmer - Bad Case Of Loving You
TTITLE12=Police - Message In A Bottle
TTITLE13=Elvis Presley - Burning Love
TTITLE14=Suzi Quatro - Devil Gate Drive
TTITLE15=Queen - Crazy Little Thing Called Love
TTITLE16=Ram Jam - Black Betty
TTITLE17=Lou Reed - Walk On The Wild Side
TTITLE18=Cliff Richard - We Don't Talk Anymore
TTITLE19=Rolling Stones - Brown Sugar
EXTD=
EXTT0=
EXTT1=
EXTT2=
EXTT3=
EXTT4=
EXTT5=
EXTT6=
EXTT7=
EXTT8=
EXTT9=
EXTT10=
EXTT11=
EXTT12=
EXTT13=
EXTT14=
EXTT15=
EXTT16=
EXTT17=
EXTT18=
EXTT19=
PLAYORDER=
